PathFileType	4	(X/Y/Z)	s02c0402.trc
DataRate	CameraRate	NumFrames	NumMarkers	Units	OrigDataRate	OrigDataStartFrame	OrigNumFrames
200	200	5	50	mm	200	0	2000
Frame#	Time	racr			lacr			c7			jug			rlel			rdr			llel			ldr			s2			lic			ric			lasi			rasi			rpsi			lpsi			rgt			lgt			rth1			rth2			rth3			rth4			rlfc			rmfc			rsh1			rsh2			rsh3			rsh4			rlmal			rmmal			rtoe			rmt5			rmt1			lth1			lth2			lth4			lth3			llfc			lmfc			lsh1			lsh2			lsh3			lsh4			llmal			lmmal			lcal			ltoe			lmt5			SBIKE			LBIKE			RBIKE			
		X1	Y1	Z1	X2	Y2	Z2	X3	Y3	Z3	X4	Y4	Z4	X5	Y5	Z5	X6	Y6	Z6	X7	Y7	Z7	X8	Y8	Z8	X9	Y9	Z9	X10	Y10	Z10	X11	Y11	Z11	X12	Y12	Z12	X13	Y13	Z13	X14	Y14	Z14	X15	Y15	Z15	X16	Y16	Z16	X17	Y17	Z17	X18	Y18	Z18	X19	Y19	Z19	X20	Y20	Z20	X21	Y21	Z21	X22	Y22	Z22	X23	Y23	Z23	X24	Y24	Z24	X25	Y25	Z25	X26	Y26	Z26	X27	Y27	Z27	X28	Y28	Z28	X29	Y29	Z29	X30	Y30	Z30	X31	Y31	Z31	X32	Y32	Z32	X33	Y33	Z33	X34	Y34	Z34	X35	Y35	Z35	X36	Y36	Z36	X37	Y37	Z37	X38	Y38	Z38	X39	Y39	Z39	X40	Y40	Z40	X41	Y41	Z41	X42	Y42	Z42	X43	Y43	Z43	X44	Y44	Z44	X45	Y45	Z45	X46	Y46	Z46	X47	Y47	Z47	X48	Y48	Z48	X49	Y49	Z49	X50	Y50	Z50	
0	0.0000	463.822820	1317.215757	-147.956360	464.397089	1320.776379	-505.139438	475.551097	1364.582258	-331.411638	426.808893	1236.426270	-324.902869	580.354728	1069.516167	-109.829642	722.077403	889.172209	-121.090031	555.265734	1061.130544	-561.383000	699.795527	886.273779	-515.778054	-2.790767	1092.959299	-326.353464	143.639156	1095.066755	-462.972035	123.167042	1114.533653	-184.028208	193.316985	1066.436696	-435.462652	174.278478	1080.403989	-201.970093	12.782799	1139.334862	-287.107207	21.437911	1143.191204	-372.039848	107.501783	1036.762684	-135.772900	92.598749	998.782706	-493.550355	193.272235	1008.114199	-133.969716	280.563409	998.257449	-142.490501	352.822277	957.329559	-119.668534	289.590240	1022.024916	-171.046581	472.757434	868.830921	-152.236918	467.104297	850.014290	-264.647734	453.745306	757.547023	-137.174380	434.587320	671.748927	-156.580155	382.080627	604.226082	-150.387490	446.980691	667.458493	-192.476270	320.869858	499.678776	-156.917300	328.738035	521.663086	-236.516883	533.654486	452.445228	-193.345332	425.748186	430.654334	-137.184477	452.620283	446.230516	-244.860805	195.868106	901.176022	-509.382768	261.183333	844.531381	-507.526557	288.873801	862.311576	-490.585806	287.950464	759.083208	-506.461394	338.340659	670.490755	-484.423819	339.895023	641.287234	-380.208348	286.083763	579.740525	-503.576890	252.888800	501.394571	-486.878043	181.870140	445.919984	-489.585161	269.934267	492.870416	-451.116704	105.298150	373.331776	-471.860750	121.731281	361.784891	-395.774703	25.887885	357.912452	-432.420012	261.859535	194.840195	-444.012594	158.775235	231.499093	-501.611099	-165.887535	857.298937	-315.699478	32.581249	82.318214	-515.341718	32.986104	81.694483	-115.076180	
1	0.0050	463.752611	1317.207170	-147.931185	464.396899	1320.868829	-505.134105	475.504499	1364.623557	-331.421867	426.751998	1236.460247	-324.927994	580.320378	1069.564608	-109.862692	722.070077	889.208904	-121.042832	555.399929	1061.180851	-560.970760	699.883711	886.289317	-515.766029	-2.845546	1092.966763	-326.351324	143.565186	1095.054377	-462.978139	123.162787	1114.514626	-184.041416	193.230958	1066.388941	-435.526626	174.253608	1080.422990	-201.990440	12.735890	1139.346157	-287.099124	21.296459	1143.141388	-371.889212	107.464032	1036.744611	-135.773660	92.490394	998.778546	-493.574315	193.243999	1008.097028	-133.987362	280.519629	998.218935	-142.505806	352.831393	957.344013	-119.700282	289.552569	1022.017405	-171.054637	472.739369	868.877129	-152.243963	467.080447	850.055965	-264.687256	453.728047	757.618954	-137.231295	434.535418	671.790258	-156.616920	382.037773	604.284299	-150.388763	446.946539	667.491703	-192.521033	320.819296	499.726762	-156.927150	328.703396	521.717116	-236.537942	533.599311	452.522502	-193.352568	425.699926	430.753659	-137.193296	452.571325	446.300564	-244.851925	195.763542	901.154906	-509.458601	261.077883	844.537112	-507.595853	288.765337	862.344225	-490.685231	287.870203	759.092168	-506.546507	338.290450	670.525049	-484.523597	339.914658	641.355893	-380.292669	286.079400	579.758722	-503.651831	252.938300	501.390940	-486.942580	181.959365	445.879488	-489.641976	269.994419	492.851820	-451.167451	105.400914	373.293014	-471.906926	121.822235	361.757315	-395.822603	26.007637	357.889786	-432.426551	261.923097	194.670067	-443.998338	158.853924	231.422707	-501.605454	-165.708881	856.442466	-318.287103	32.564395	82.328521	-515.350378	32.678746	81.878616	-115.228455	
2	0.0100	463.685534	1317.219039	-147.927657	464.422469	1320.925517	-505.128258	475.457684	1364.668815	-331.425687	426.704118	1236.458294	-324.958404	580.280242	1069.573092	-109.900733	722.073454	889.234244	-121.033963	555.547565	1061.225800	-560.556948	699.974072	886.303543	-515.742599	-2.903394	1092.960793	-326.319474	143.492134	1095.053816	-462.956818	123.125986	1114.514881	-184.024866	193.150270	1066.353393	-435.560226	174.242801	1080.435192	-202.006296	12.673241	1139.344235	-287.064792	21.241203	1143.131404	-371.870813	107.411735	1036.716899	-135.773914	92.385575	998.783172	-493.575915	193.211471	1008.054303	-133.995066	280.492138	998.213223	-142.525535	352.791821	957.358621	-119.712977	289.518315	1022.003220	-171.073016	472.743374	868.909295	-152.304702	467.079109	850.082367	-264.720905	453.717129	757.670001	-137.281888	434.509053	671.828131	-156.651078	381.993847	604.324589	-150.410682	446.915398	667.544808	-192.543292	320.761465	499.779744	-156.934321	328.647559	521.759033	-236.547285	533.537424	452.595595	-193.359666	425.656320	430.831742	-137.183262	452.517114	446.372508	-244.884413	195.668196	901.173442	-509.514112	260.982039	844.570746	-507.686579	288.674130	862.386851	-490.765938	287.805597	759.134222	-506.614904	338.261792	670.587015	-484.643322	339.916424	641.428748	-380.409367	286.096664	579.804781	-503.738269	252.988807	501.420763	-487.017741	182.034133	445.863772	-489.691291	270.063870	492.891419	-451.229859	105.540097	373.247390	-471.945042	121.967834	361.700282	-395.848721	26.146293	357.889011	-432.431908	261.986792	194.558009	-444.020839	158.922989	231.334450	-501.611163	-165.649270	856.413547	-318.498480	32.578784	82.317769	-515.343951	32.997720	81.671647	-115.078169	
3	0.0150	463.624801	1317.211157	-147.921098	464.445847	1320.978805	-505.135336	475.414332	1364.711181	-331.455151	426.670914	1236.503142	-325.013311	580.236569	1069.575407	-109.931597	722.064539	889.264560	-121.021072	555.786428	1061.393661	-559.901516	700.057441	886.308891	-515.722759	-3.078355	1092.976450	-326.893115	143.564000	1094.904365	-462.991818	122.726538	1114.214092	-185.424472	193.057520	1066.323791	-435.613451	174.206058	1080.431217	-202.030030	13.965764	1138.300745	-288.209171	21.718894	1142.963779	-373.545961	107.959941	1035.904730	-136.796920	92.284556	998.778381	-493.572132	193.186612	1008.025805	-134.001962	280.461338	998.204148	-142.553508	352.776684	957.369760	-119.747143	289.759461	1021.432900	-170.929521	472.732997	868.930389	-152.345797	467.078011	850.108946	-264.785704	453.694870	757.707562	-137.324336	433.231031	671.399024	-157.331258	382.120545	604.260444	-150.486382	447.936382	668.332228	-193.249511	320.104843	500.675550	-156.118031	328.472536	521.624363	-236.999119	533.481974	452.676143	-193.377242	425.604077	430.913000	-137.207312	452.458791	446.441599	-244.892151	195.567500	901.189265	-509.550265	261.020946	844.271406	-507.545049	288.510743	862.731622	-490.996109	287.759251	759.069946	-506.722073	338.441730	670.478973	-484.880200	339.791984	641.417571	-381.299614	286.127308	579.861981	-503.813105	253.324311	501.440665	-487.522594	182.035087	446.039093	-489.839843	269.926165	493.024395	-450.772444	105.683273	373.217457	-471.978559	122.108005	361.692178	-395.884919	26.309134	357.896936	-432.436820	262.030933	194.394529	-443.997673	159.001603	231.257629	-501.612228	-165.656697	857.319893	-315.803287	32.574844	82.309362	-515.351478	33.010767	81.623004	-115.096016	
4	0.0200	463.379624	1317.571375	-147.314447	464.263384	1321.227126	-504.629950	475.245579	1364.924495	-330.870347	426.703190	1236.565917	-324.933379	579.850659	1069.912122	-109.530710	721.814593	889.466038	-120.587647	555.807361	1061.622842	-559.590534	699.847081	886.127723	-515.010198	-3.102057	1093.003664	-326.863731	143.478980	1094.626549	-463.065856	122.542539	1114.974124	-184.798371	192.812863	1066.669132	-435.460912	174.216102	1080.405976	-202.117921	13.944436	1138.306096	-288.257244	21.600788	1142.921762	-373.549050	107.532379	1036.428354	-136.165606	92.192807	998.872593	-493.484107	192.841445	1008.430555	-133.550317	280.164434	998.607172	-142.134328	352.414474	957.854320	-119.161569	289.633039	1021.770761	-170.781095	472.714101	869.114206	-152.310404	466.824486	850.547187	-264.419857	453.234286	758.220665	-136.863210	433.202648	672.013249	-157.084468	381.552553	604.839635	-150.034399	447.674529	668.885332	-193.241533	320.050438	500.734591	-156.069963	328.028164	522.118596	-236.911511	533.219131	453.043659	-193.096886	425.200766	431.453612	-136.740717	452.302755	446.940670	-244.817773	195.325503	901.524337	-509.293229	260.999888	844.428230	-507.519201	288.466058	862.859199	-490.963924	287.746341	759.262747	-506.761167	338.141402	670.914720	-484.672891	339.469751	642.210694	-380.641851	285.988740	580.210650	-503.702105	253.036548	501.919076	-487.132835	182.237173	446.088684	-489.927265	270.023863	493.184118	-450.670561	105.799608	373.216679	-471.969097	122.271207	361.723948	-395.945602	26.474355	357.915556	-432.451575	261.962226	194.162552	-443.864355	159.047778	231.213467	-501.604994	-165.680764	856.548481	-318.135425	32.452384	82.285301	-515.355924	31.761080	83.025759	-115.033385	
